HIERARCHY
ROOT hip
{
  OFFSET 0 90.174 2.4664
  CHANNELS 6 Xposition Yposition Zposition Zrotation Xrotation Yrotation
  JOINT abdomen
  {
    OFFSET 0 -1.186 -1.5018
    CHANNELS 6 Xposition Yposition Zposition Zrotation Xrotation Yrotation
    JOINT abdomen2
    {
      OFFSET 0 9.964 0.2134
      CHANNELS 6 Xposition Yposition Zposition Zrotation Xrotation Yrotation
      JOINT chest
      {
        OFFSET 0 13.134 -3.2573
        CHANNELS 6 Xposition Yposition Zposition Zrotation Xrotation Yrotation
        JOINT neck
        {
          OFFSET 0 20.686 -1.6905
          CHANNELS 6 Xposition Yposition Zposition Zrotation Xrotation Yrotation
          JOINT head
          {
            OFFSET 0 7.238 -0.1237
            CHANNELS 6 Xposition Yposition Zposition Zrotation Xrotation Yrotation
            End Site
            {
              OFFSET 0 0 0
            }
          }
        }
        JOINT lCollar
        {
          OFFSET 1.7069 20.075 5.0056
          CHANNELS 6 Xposition Yposition Zposition Zrotation Xrotation Yrotation
          JOINT lShldr
          {
            OFFSET 13.6458 -0.047 -4.849
            CHANNELS 6 Xposition Yposition Zposition Zrotation Xrotation Yrotation
            JOINT lForeArm
            {
              OFFSET 28.3255 -0.9759 2.2888
              CHANNELS 6 Xposition Yposition Zposition Zrotation Xrotation Yrotation
              JOINT lHand
              {
                OFFSET 22.1583 -0.53 10.8316
                CHANNELS 6 Xposition Yposition Zposition Zrotation Xrotation Yrotation
                JOINT lThumb1
                {
                  OFFSET 0.786 0.112 2.5817
                  CHANNELS 6 Xposition Yposition Zposition Zrotation Xrotation Yrotation
                  JOINT lThumb2
                  {
                    OFFSET 0.3601 -0.878 4.2331
                    CHANNELS 6 Xposition Yposition Zposition Zrotation Xrotation Yrotation
                    JOINT lThumb2_End
                    {
                      OFFSET 1.8127 -1.216 2.2227
                      CHANNELS 6 Xposition Yposition Zposition Zrotation Xrotation Yrotation
                      End Site
                      {
                        OFFSET 0.0181 -0.0122 0.0222
                      }
                    }
                  }
                }
                JOINT lCarpal1
                {
                  OFFSET 0.9571 1.114 1.7695
                  CHANNELS 6 Xposition Yposition Zposition Zrotation Xrotation Yrotation
                  JOINT lIndex1
                  {
                    OFFSET 4.1246 0.487 4.1451
                    CHANNELS 6 Xposition Yposition Zposition Zrotation Xrotation Yrotation
                    JOINT lIndex2
                    {
                      OFFSET 3.4052 -1.454 2.7682
                      CHANNELS 6 Xposition Yposition Zposition Zrotation Xrotation Yrotation
                      JOINT lIndex2_End
                      {
                        OFFSET 1.4531 -1.795 1.2713
                        CHANNELS 6 Xposition Yposition Zposition Zrotation Xrotation Yrotation
                        End Site
                        {
                          OFFSET 0.0145 -0.0179 0.0127
                        }
                      }
                    }
                  }
                  JOINT lMid1
                  {
                    OFFSET 5.6954 0.21 2.1184
                    CHANNELS 6 Xposition Yposition Zposition Zrotation Xrotation Yrotation
                    JOINT lMid2
                    {
                      OFFSET 3.9766 -1.54 2.3863
                      CHANNELS 6 Xposition Yposition Zposition Zrotation Xrotation Yrotation
                      JOINT lMid2_End
                      {
                        OFFSET 1.4042 -1.926 1.125
                        CHANNELS 6 Xposition Yposition Zposition Zrotation Xrotation Yrotation
                        End Site
                        {
                          OFFSET 0.014 -0.0193 0.0113
                        }
                      }
                    }
                  }
                }
                JOINT lCarpal2
                {
                  OFFSET 2.0956 0.66 -0.3894
                  CHANNELS 6 Xposition Yposition Zposition Zrotation Xrotation Yrotation
                  JOINT lRing1
                  {
                    OFFSET 5.0395 -0.09 2.4971
                    CHANNELS 6 Xposition Yposition Zposition Zrotation Xrotation Yrotation
                    JOINT lRing2
                    {
                      OFFSET 3.7921 -1.552 1.4806
                      CHANNELS 6 Xposition Yposition Zposition Zrotation Xrotation Yrotation
                      JOINT lRing2_End
                      {
                        OFFSET 1.4655 -1.808 0.9609
                        CHANNELS 6 Xposition Yposition Zposition Zrotation Xrotation Yrotation
                        End Site
                        {
                          OFFSET 0.0147 -0.0181 0.0096
                        }
                      }
                    }
                  }
                  JOINT lPinky1
                  {
                    OFFSET 4.9141 -1.269 0.3591
                    CHANNELS 6 Xposition Yposition Zposition Zrotation Xrotation Yrotation
                    JOINT lPinky2
                    {
                      OFFSET 3.1477 -1.685 0.8462
                      CHANNELS 6 Xposition Yposition Zposition Zrotation Xrotation Yrotation
                      JOINT lPinky2_End
                      {
                        OFFSET 0.8055 -1.585 0.7955
                        CHANNELS 6 Xposition Yposition Zposition Zrotation Xrotation Yrotation
                        End Site
                        {
                          OFFSET 0.0081 -0.0158 0.008
                        }
                      }
                    }
                  }
                }
              }
            }
          }
        }
        JOINT rCollar
        {
          OFFSET -1.7069 20.075 5.0056
          CHANNELS 6 Xposition Yposition Zposition Zrotation Xrotation Yrotation
          JOINT rShldr
          {
            OFFSET -13.6458 -0.047 -4.849
            CHANNELS 6 Xposition Yposition Zposition Zrotation Xrotation Yrotation
            JOINT rForeArm
            {
              OFFSET -28.3255 -0.9759 2.2888
              CHANNELS 6 Xposition Yposition Zposition Zrotation Xrotation Yrotation
              JOINT rHand
              {
                OFFSET -22.1583 -0.53 10.8316
                CHANNELS 6 Xposition Yposition Zposition Zrotation Xrotation Yrotation
                JOINT rThumb1
                {
                  OFFSET -0.786 0.112 2.5817
                  CHANNELS 6 Xposition Yposition Zposition Zrotation Xrotation Yrotation
                  JOINT rThumb2
                  {
                    OFFSET -0.3601 -0.878 4.2331
                    CHANNELS 6 Xposition Yposition Zposition Zrotation Xrotation Yrotation
                    JOINT rThumb2_End
                    {
                      OFFSET -1.8127 -1.216 2.2227
                      CHANNELS 6 Xposition Yposition Zposition Zrotation Xrotation Yrotation
                      End Site
                      {
                        OFFSET -0.0181 -0.0122 0.0222
                      }
                    }
                  }
                }
                JOINT rCarpal1
                {
                  OFFSET -0.9571 1.114 1.7695
                  CHANNELS 6 Xposition Yposition Zposition Zrotation Xrotation Yrotation
                  JOINT rIndex1
                  {
                    OFFSET -4.1246 0.487 4.1451
                    CHANNELS 6 Xposition Yposition Zposition Zrotation Xrotation Yrotation
                    JOINT rIndex2
                    {
                      OFFSET -3.4052 -1.454 2.7682
                      CHANNELS 6 Xposition Yposition Zposition Zrotation Xrotation Yrotation
                      JOINT rIndex2_End
                      {
                        OFFSET -1.4531 -1.795 1.2713
                        CHANNELS 6 Xposition Yposition Zposition Zrotation Xrotation Yrotation
                        End Site
                        {
                          OFFSET -0.0145 -0.018 0.0127
                        }
                      }
                    }
                  }
                  JOINT rMid1
                  {
                    OFFSET -5.6954 0.21 2.1184
                    CHANNELS 6 Xposition Yposition Zposition Zrotation Xrotation Yrotation
                    JOINT rMid2
                    {
                      OFFSET -3.9766 -1.54 2.3863
                      CHANNELS 6 Xposition Yposition Zposition Zrotation Xrotation Yrotation
                      JOINT rMid2_End
                      {
                        OFFSET -1.4042 -1.926 1.125
                        CHANNELS 6 Xposition Yposition Zposition Zrotation Xrotation Yrotation
                        End Site
                        {
                          OFFSET -0.014 -0.0193 0.0113
                        }
                      }
                    }
                  }
                }
                JOINT rCarpal2
                {
                  OFFSET -2.0956 0.66 -0.3894
                  CHANNELS 6 Xposition Yposition Zposition Zrotation Xrotation Yrotation
                  JOINT rRing1
                  {
                    OFFSET -5.0395 -0.09 2.4971
                    CHANNELS 6 Xposition Yposition Zposition Zrotation Xrotation Yrotation
                    JOINT rRing2
                    {
                      OFFSET -3.7921 -1.552 1.4806
                      CHANNELS 6 Xposition Yposition Zposition Zrotation Xrotation Yrotation
                      JOINT rRing2_End
                      {
                        OFFSET -1.4655 -1.808 0.9609
                        CHANNELS 6 Xposition Yposition Zposition Zrotation Xrotation Yrotation
                        End Site
                        {
                          OFFSET -0.0147 -0.0181 0.0096
                        }
                      }
                    }
                  }
                  JOINT rPinky1
                  {
                    OFFSET -4.9141 -1.269 0.3592
                    CHANNELS 6 Xposition Yposition Zposition Zrotation Xrotation Yrotation
                    JOINT rPinky2
                    {
                      OFFSET -3.1477 -1.685 0.8462
                      CHANNELS 6 Xposition Yposition Zposition Zrotation Xrotation Yrotation
                      JOINT rPinky2_End
                      {
                        OFFSET -0.8055 -1.585 0.7955
                        CHANNELS 6 Xposition Yposition Zposition Zrotation Xrotation Yrotation
                        End Site
                        {
                          OFFSET -0.0081 -0.0158 0.008
                        }
                      }
                    }
                  }
                }
              }
            }
          }
        }
      }
    }
  }
  JOINT lThigh
  {
    OFFSET 8.367 -8.2066 0.5982
    CHANNELS 6 Xposition Yposition Zposition Zrotation Xrotation Yrotation
    JOINT lShin
    {
      OFFSET 2.1923 -43.463 -0.4932
      CHANNELS 6 Xposition Yposition Zposition Zrotation Xrotation Yrotation
      JOINT lFoot
      {
        OFFSET 0.7333 -45.8593 -2.6451
        CHANNELS 6 Xposition Yposition Zposition Zrotation Xrotation Yrotation
        End Site
        {
          OFFSET 2.6618 -4.2699 12.3931
        }
      }
    }
  }
  JOINT rThigh
  {
    OFFSET -8.367 -8.2066 0.5982
    CHANNELS 6 Xposition Yposition Zposition Zrotation Xrotation Yrotation
    JOINT rShin
    {
      OFFSET -2.1923 -43.463 -0.4931
      CHANNELS 6 Xposition Yposition Zposition Zrotation Xrotation Yrotation
      JOINT rFoot
      {
        OFFSET -0.7333 -45.8593 -2.6451
        CHANNELS 6 Xposition Yposition Zposition Zrotation Xrotation Yrotation
        End Site
        {
          OFFSET -2.6618 -4.2699 12.3931
        }
      }
    }
  }
}
MOTION
Frames:	4
Frame Time:	0.0333333
0 90.174 2.4664 0 0 -0 0 -1.186 -1.5018 0 0 -0 0 9.964 0.2134 0 0 -0 0 13.134 -3.2573 0 0 -0 0 20.686 -1.6905 0 0 -0 0 7.238 -0.1237 0 0 -0 1.7069 20.075 5.0056 0 0 -0 13.6458 -0.047 -4.849 1.66051 0.0835086 5.75766 28.3255 -0.9759 2.2888 -0.0175111 0.895433 15.7816 22.1583 -0.53 10.8316 7.95139e-016 -1.98785e-016 -0 0.786 0.112 2.5817 5.46658e-016 -3.97569e-016 -0 0.3601 -0.878 4.2331 5.96354e-016 0 -0 1.8127 -1.216 2.2227 3.97569e-016 1.98785e-016 9.54166e-015 0.9571 1.114 1.7695 1.49089e-016 -3.97569e-016 -0 4.1246 0.487 4.1451 6.4605e-016 0 3.18055e-015 3.4052 -1.454 2.7682 5.96354e-016 0 3.18055e-015 1.4531 -1.795 1.2713 8.94531e-016 -1.98785e-016 6.36111e-015 5.6954 0.21 2.1184 6.4605e-016 0 3.18055e-015 3.9766 -1.54 2.3863 5.96354e-016 0 3.18055e-015 1.4042 -1.926 1.125 8.94531e-016 -1.98785e-016 6.36111e-015 2.0956 0.66 -0.3894 1.49089e-016 -3.97569e-016 -0 5.0395 -0.09 2.4971 6.4605e-016 0 3.18055e-015 3.7921 -1.552 1.4806 5.96354e-016 0 3.18055e-015 1.4655 -1.808 0.9609 8.94531e-016 -1.98785e-016 6.36111e-015 4.9141 -1.269 0.3591 6.4605e-016 0 3.18055e-015 3.1477 -1.685 0.8462 5.96354e-016 0 3.18055e-015 0.8055 -1.585 0.7955 8.94531e-016 -1.98785e-016 6.36111e-015 -1.7069 20.075 5.0056 0 0 -0 -13.6458 -0.047 -4.849 -1.4496 0.0636048 -5.0245 -28.3255 -0.9759 2.2888 -1.74811 1.20616 -16.8394 -22.1583 -0.53 10.8316 -1.19271e-015 1.98785e-016 -3.18055e-015 -0.786 0.112 2.5817 -3.97569e-016 1.98785e-016 -3.18055e-015 -0.3601 -0.878 4.2331 -2.98177e-016 1.98785e-016 -3.18055e-015 -1.8127 -1.216 2.2227 -2.98177e-016 3.97569e-016 -0 -0.9571 1.114 1.7695 4.96962e-016 0 -6.36111e-015 -4.1246 0.487 4.1451 -9.93923e-017 3.97569e-016 -0 -3.4052 -1.454 2.7682 -8.94531e-016 5.96354e-016 -0 -1.4531 -1.795 1.2713 -3.97569e-016 3.97569e-016 -0 -5.6954 0.21 2.1184 -9.93923e-017 3.97569e-016 -0 -3.9766 -1.54 2.3863 -8.94531e-016 5.96354e-016 -0 -1.4042 -1.926 1.125 -3.97569e-016 3.97569e-016 -0 -2.0956 0.66 -0.3894 4.96962e-016 0 -6.36111e-015 -5.0395 -0.09 2.4971 -9.93923e-017 3.97569e-016 -0 -3.7921 -1.552 1.4806 -8.94531e-016 5.96354e-016 -0 -1.4655 -1.808 0.9609 -3.97569e-016 3.97569e-016 -0 -4.9141 -1.269 0.3592 -9.93923e-017 3.97569e-016 -0 -3.1477 -1.685 0.8462 -8.94531e-016 5.96354e-016 -0 -0.8055 -1.585 0.7955 -3.97569e-016 3.97569e-016 -0 8.367 -8.2066 0.5982 -4.66115 -1.03232 0.120763 2.1923 -43.463 -0.4932 0.00990601 1.55097 0.177175 0.7333 -45.8593 -2.6451 4.65196 -0.54114 -0.255042 -8.367 -8.2066 0.5982 4.66115 -1.03222 -0.120763 -2.1923 -43.463 -0.4931 -0.00990459 1.5509 -0.177176 -0.7333 -45.8593 -2.6451 -4.65196 -0.541171 0.255041 
0.149303 55.6874 -3.48503 -0 -32.9638 -0 0 -1.186 -1.5018 0 1.04252e-005 -0 0 9.964 0.2134 -0 -3.87562e-006 -0 0 13.134 -3.2573 0 3.27477e-006 -0 0 20.686 -1.6905 -0.0369504 6.29546 3.23805e-009 2.77556e-017 7.238 -0.1237 0.00134934 -0.366027 -0.0183221 1.7069 20.075 5.0056 -0.0369503 3.87562e-006 1.92745e-009 13.6458 -0.047 -4.849 7.369 -22.1305 6.43422 28.3255 -0.9759 2.2888 -0.607664 -8.18129 1.05871 22.1583 -0.53 10.8316 5.17003 -2.03218 0.186125 0.786 0.112 2.5817 2.07083e-006 3.84976e-006 1.83093e-006 0.3601 -0.878 4.2331 9.66808e-007 -2.00898e-007 -1.63311e-006 1.8127 -1.216 2.2227 -9.41925e-007 3.61881e-006 -1.27592e-006 0.9571 1.114 1.7695 4.41391e-032 3.18055e-015 -7.95139e-016 4.1246 0.487 4.1451 2.07083e-006 3.84976e-006 1.83093e-006 3.4052 -1.454 2.7682 9.66808e-007 -2.00898e-007 -1.63311e-006 1.4531 -1.795 1.2713 -9.41925e-007 3.61881e-006 -1.27592e-006 5.6954 0.21 2.1184 2.07083e-006 3.84976e-006 1.83093e-006 3.9766 -1.54 2.3863 9.66808e-007 -2.00898e-007 -1.63311e-006 1.4042 -1.926 1.125 -9.41925e-007 3.61881e-006 -1.27592e-006 2.0956 0.66 -0.3894 4.41391e-032 3.18055e-015 -7.95139e-016 5.0395 -0.09 2.4971 2.07083e-006 3.84976e-006 1.83093e-006 3.7921 -1.552 1.4806 9.66808e-007 -2.00898e-007 -1.63311e-006 1.4655 -1.808 0.9609 -9.41925e-007 3.61881e-006 -1.27592e-006 4.9141 -1.269 0.3591 2.07083e-006 3.84976e-006 1.83093e-006 3.1477 -1.685 0.8462 9.66808e-007 -2.00898e-007 -1.63311e-006 0.8055 -1.585 0.7955 -9.41925e-007 3.61881e-006 -1.27592e-006 -1.7069 20.075 5.0056 -0.0369501 1.10258e-007 11.1106 -13.6458 -0.047 -4.849 -21.0708 -21.9151 -11.2055 -28.3255 -0.9759 2.2888 5.57 -4.50499 32 -22.1583 -0.53 10.8316 4.00215e-007 -4.77372e-007 -1.81926e-006 -0.786 0.112 2.5817 1.59028e-015 0 -5.56597e-015 -0.3601 -0.878 4.2331 -1.59028e-015 3.18055e-015 1.59028e-015 -1.8127 -1.216 2.2227 1.59028e-015 0 7.95139e-016 -0.9571 1.114 1.7695 1.59028e-015 0 -5.56597e-015 -4.1246 0.487 4.1451 -1.59028e-015 3.18055e-015 7.95139e-015 -3.4052 -1.454 2.7682 -4.77083e-015 3.18055e-015 7.15625e-015 -1.4531 -1.795 1.2713 -4.77083e-015 9.54166e-015 7.15625e-015 -5.6954 0.21 2.1184 -1.59028e-015 3.18055e-015 7.95139e-015 -3.9766 -1.54 2.3863 -4.77083e-015 3.18055e-015 7.15625e-015 -1.4042 -1.926 1.125 -4.77083e-015 9.54166e-015 7.15625e-015 -2.0956 0.66 -0.3894 1.59028e-015 0 -5.56597e-015 -5.0395 -0.09 2.4971 -1.59028e-015 3.18055e-015 7.95139e-015 -3.7921 -1.552 1.4806 -4.77083e-015 3.18055e-015 7.15625e-015 -1.4655 -1.808 0.9609 -4.77083e-015 9.54166e-015 7.15625e-015 -4.9141 -1.269 0.3592 -1.59028e-015 3.18055e-015 7.95139e-015 -3.1477 -1.685 0.8462 -4.77083e-015 3.18055e-015 7.15625e-015 -0.8055 -1.585 0.7955 -4.77083e-015 9.54166e-015 7.15625e-015 8.367 -8.2066 0.5982 -8.59026 -1.56901 0.0997481 2.1923 -43.463 -0.4932 0.0294997 2.65876 0.53716 0.7333 -45.8593 -2.6451 4.55216 6.63993 -0.542989 -8.367 -8.2066 0.5982 5.27717 -3.15869 0.0986196 -2.1923 -43.463 -0.4931 -0.0355085 2.33159 -0.528978 -0.7333 -45.8593 -2.6451 -1.4196 10.3229 -1.02104 
0.306083 18.0705 -8.36132 -0 -65.9276 -0 0 -1.186 -1.5018 0 0 -0 0 9.964 0.2134 0 0 -0 0 13.134 -3.2573 0 0 -0 0 20.686 -1.6905 -0.0739005 12.5904 5.59598e-009 8.32667e-017 7.238 -0.1237 0.00246456 -0.732033 -0.0366464 1.7069 20.075 5.0056 -0.0739005 3.12153e-007 2.03863e-009 13.6458 -0.047 -4.849 13.4734 -44.3406 7.37997 28.3255 -0.9759 2.2888 -5.56032 -15.0815 -14.6542 22.1583 -0.53 10.8316 10.3563 -4.03928 0.555374 0.786 0.112 2.5817 6.36111e-015 -6.36111e-015 -3.18055e-015 0.3601 -0.878 4.2331 -5.26564e-007 -2.96689e-006 5.38492e-006 1.8127 -1.216 2.2227 -3.18055e-015 -6.36111e-015 1.59028e-015 0.9571 1.114 1.7695 -5.29669e-031 -9.54166e-015 -3.18055e-015 4.1246 0.487 4.1451 5.29669e-031 -6.36111e-015 4.77083e-015 3.4052 -1.454 2.7682 -5.26564e-007 -2.96689e-006 5.38492e-006 1.4531 -1.795 1.2713 -3.18055e-015 0 -0 5.6954 0.21 2.1184 5.29669e-031 -6.36111e-015 4.77083e-015 3.9766 -1.54 2.3863 -5.26564e-007 -2.96689e-006 5.38492e-006 1.4042 -1.926 1.125 -3.18055e-015 0 -0 2.0956 0.66 -0.3894 -5.29669e-031 -9.54166e-015 -3.18055e-015 5.0395 -0.09 2.4971 5.29669e-031 -6.36111e-015 4.77083e-015 3.7921 -1.552 1.4806 -5.26564e-007 -2.96689e-006 5.38492e-006 1.4655 -1.808 0.9609 -3.18055e-015 0 -0 4.9141 -1.269 0.3591 5.29669e-031 -6.36111e-015 4.77083e-015 3.1477 -1.685 0.8462 -5.26564e-007 -2.96689e-006 5.38492e-006 0.8055 -1.585 0.7955 -3.18055e-015 0 -0 -1.7069 20.075 5.0056 -0.0738974 -4.2322e-006 22.2213 -13.6458 -0.047 -4.849 -46.7312 -43.0971 -20.7095 -28.3255 -0.9759 2.2888 16.695 -0.394852 80.7493 -22.1583 -0.53 10.8316 2.06091e-006 2.28633e-006 2.99219e-006 -0.786 0.112 2.5817 -2.0203e-006 4.73655e-006 5.8739e-006 -0.3601 -0.878 4.2331 -1.19815e-006 -4.37241e-006 -3.70303e-006 -1.8127 -1.216 2.2227 -1.15754e-006 2.65047e-006 5.16307e-006 -0.9571 1.114 1.7695 3.18055e-015 0 -1.98785e-015 -4.1246 0.487 4.1451 -2.0203e-006 4.73655e-006 5.8739e-006 -3.4052 -1.454 2.7682 -1.19815e-006 -4.37241e-006 -3.70303e-006 -1.4531 -1.795 1.2713 -1.15754e-006 2.65047e-006 5.16307e-006 -5.6954 0.21 2.1184 -2.0203e-006 4.73655e-006 5.8739e-006 -3.9766 -1.54 2.3863 -1.19815e-006 -4.37241e-006 -3.70303e-006 -1.4042 -1.926 1.125 -1.15754e-006 2.65047e-006 5.16307e-006 -2.0956 0.66 -0.3894 3.18055e-015 0 -1.98785e-015 -5.0395 -0.09 2.4971 -2.0203e-006 4.73655e-006 5.8739e-006 -3.7921 -1.552 1.4806 -1.19815e-006 -4.37241e-006 -3.70303e-006 -1.4655 -1.808 0.9609 -1.15754e-006 2.65047e-006 5.16307e-006 -4.9141 -1.269 0.3592 -2.0203e-006 4.73655e-006 5.8739e-006 -3.1477 -1.685 0.8462 -1.19815e-006 -4.37241e-006 -3.70303e-006 -0.8055 -1.585 0.7955 -1.15754e-006 2.65047e-006 5.16307e-006 8.367 -8.2066 0.5982 -12.5336 -2.45303 0.066933 2.1923 -43.463 -0.4932 0.0487532 4.40246 0.906374 0.7333 -45.8593 -2.6451 4.5301 13.5342 -0.825877 -8.367 -8.2066 0.5982 5.89859 -5.64406 0.321593 -2.1923 -43.463 -0.4931 -0.0577112 3.86585 -0.834641 -0.7333 -45.8593 -2.6451 2.35913 20.8228 -2.41718 
0.427007 -9.64838 -10.1762 -0 -89.0022 -0 0 -1.186 -1.5018 0 0 -0 0 9.964 0.2134 0 0 -0 0 13.134 -3.2573 0 0 -0 0 20.686 -1.6905 -0.099664 16.997 2.02238e-008 5.55112e-017 7.238 -0.1237 -1.23117e-008 -1.00193 -8.91873e-009 1.7069 20.075 5.0056 -0.099664 3.36414e-007 2.13351e-009 13.6458 -0.047 -4.849 18.3047 -59.8793 8.61749 28.3255 -0.9759 2.2888 -11.1615 -17.7184 -26.2506 22.1583 -0.53 10.8316 14.0031 -5.42043 0.92226 0.786 0.112 2.5817 -5.74914e-008 -1.31035e-007 5.26254e-007 0.3601 -0.878 4.2331 -1.04879e-007 -1.57607e-007 -1.90294e-006 1.8127 -1.216 2.2227 9.93923e-017 1.19271e-015 3.18055e-015 0.9571 1.114 1.7695 9.93923e-017 -1.19271e-015 -3.18055e-015 4.1246 0.487 4.1451 -5.74914e-008 -1.31035e-007 5.26254e-007 3.4052 -1.454 2.7682 -1.04879e-007 -1.57607e-007 -1.90294e-006 1.4531 -1.795 1.2713 -8.94531e-016 5.96354e-016 -0 5.6954 0.21 2.1184 -5.74914e-008 -1.31035e-007 5.26254e-007 3.9766 -1.54 2.3863 -1.04879e-007 -1.57607e-007 -1.90294e-006 1.4042 -1.926 1.125 -8.94531e-016 5.96354e-016 -0 2.0956 0.66 -0.3894 9.93923e-017 -1.19271e-015 -3.18055e-015 5.0395 -0.09 2.4971 -5.74914e-008 -1.31035e-007 5.26254e-007 3.7921 -1.552 1.4806 -1.04879e-007 -1.57607e-007 -1.90294e-006 1.4655 -1.808 0.9609 -8.94531e-016 5.96354e-016 -0 4.9141 -1.269 0.3591 -5.74914e-008 -1.31035e-007 5.26254e-007 3.1477 -1.685 0.8462 -1.04879e-007 -1.57607e-007 -1.90294e-006 0.8055 -1.585 0.7955 -8.94531e-016 5.96354e-016 -0 -1.7069 20.075 5.0056 -0.0996653 -4.07006e-006 29.9987 -13.6458 -0.047 -4.849 -72.0359 -56.4474 -33.4556 -28.3255 -0.9759 2.2888 20.0933 8.10725 114.056 -22.1583 -0.53 10.8316 -4.01984e-007 -8.71741e-008 1.14129e-007 -0.786 0.112 2.5817 -1.59028e-015 6.36111e-015 3.18055e-015 -0.3601 -0.878 4.2331 0 0 -0 -1.8127 -1.216 2.2227 0 0 -0 -0.9571 1.114 1.7695 1.59028e-015 6.36111e-015 3.18055e-015 -4.1246 0.487 4.1451 3.18055e-015 0 6.36111e-015 -3.4052 -1.454 2.7682 -3.18055e-015 0 3.18055e-015 -1.4531 -1.795 1.2713 -3.18055e-015 0 3.18055e-015 -5.6954 0.21 2.1184 3.18055e-015 0 6.36111e-015 -3.9766 -1.54 2.3863 -3.18055e-015 0 3.18055e-015 -1.4042 -1.926 1.125 -3.18055e-015 0 3.18055e-015 -2.0956 0.66 -0.3894 1.59028e-015 6.36111e-015 3.18055e-015 -5.0395 -0.09 2.4971 3.18055e-015 0 6.36111e-015 -3.7921 -1.552 1.4806 -3.18055e-015 0 3.18055e-015 -1.4655 -1.808 0.9609 -3.18055e-015 0 3.18055e-015 -4.9141 -1.269 0.3592 3.18055e-015 0 6.36111e-015 -3.1477 -1.685 0.8462 -3.18055e-015 0 3.18055e-015 -0.8055 -1.585 0.7955 -3.18055e-015 0 3.18055e-015 8.367 -8.2066 0.5982 -15.3146 -3.41174 0.0288373 2.1923 -43.463 -0.4932 0.0620495 6.05225 1.14873 0.7333 -45.8593 -2.6451 4.57325 18.2732 -1.03441 -8.367 -8.2066 0.5982 6.34262 -7.97716 0.498433 -2.1923 -43.463 -0.4931 -0.0699016 5.86907 -0.98799 -0.7333 -45.8593 -2.6451 5.35166 27.8836 -3.51951 
